<mxfile host="Electron" agent="Mozilla/5.0 (Windows NT 10.0; Win64; x64) AppleWebKit/537.36 (KHTML, like Gecko) draw.io/26.2.2 Chrome/134.0.6998.178 Electron/35.1.2 Safari/537.36" version="26.2.2">
  <diagram name="Page-1" id="411AOhWVTvg8z8hl_FUN">
    <mxGraphModel dx="1212" dy="832" grid="1" gridSize="10" guides="1" tooltips="1" connect="1" arrows="1" fold="1" page="1" pageScale="1" pageWidth="1400" pageHeight="850" math="0" shadow="0">
      <root>
        <mxCell id="0" />
        <mxCell id="1" parent="0" />
        <mxCell id="eOhm5z-nb3PQKtQOv-n3-1" value="&lt;font style=&quot;font-size: 25px;&quot;&gt;Integration Model&lt;/font&gt;" style="text;html=1;align=center;verticalAlign=middle;resizable=0;points=[];autosize=1;strokeColor=none;fillColor=none;" parent="1" vertex="1">
          <mxGeometry x="10" y="43" width="220" height="40" as="geometry" />
        </mxCell>
        <mxCell id="eOhm5z-nb3PQKtQOv-n3-2" value="(How tables are related)" style="text;html=1;align=center;verticalAlign=middle;resizable=0;points=[];autosize=1;strokeColor=none;fillColor=none;" parent="1" vertex="1">
          <mxGeometry x="210" y="53" width="150" height="30" as="geometry" />
        </mxCell>
        <mxCell id="eOhm5z-nb3PQKtQOv-n3-7" value="crm_cust_info" style="swimlane;fontStyle=0;childLayout=stackLayout;horizontal=1;startSize=30;horizontalStack=0;resizeParent=1;resizeParentMax=0;resizeLast=0;collapsible=1;marginBottom=0;whiteSpace=wrap;html=1;rounded=1;fillColor=#dae8fc;strokeColor=#6c8ebf;fontSize=26;" parent="1" vertex="1">
          <mxGeometry x="390" y="360" width="180" height="110" as="geometry" />
        </mxCell>
        <mxCell id="eOhm5z-nb3PQKtQOv-n3-8" value="cust_id" style="text;strokeColor=none;fillColor=none;align=left;verticalAlign=middle;spacingLeft=4;spacingRight=4;overflow=hidden;points=[[0,0.5],[1,0.5]];portConstraint=eastwest;rotatable=0;whiteSpace=wrap;html=1;" parent="eOhm5z-nb3PQKtQOv-n3-7" vertex="1">
          <mxGeometry y="30" width="180" height="40" as="geometry" />
        </mxCell>
        <mxCell id="eOhm5z-nb3PQKtQOv-n3-30" value="cust_key" style="text;strokeColor=none;fillColor=none;align=left;verticalAlign=middle;spacingLeft=4;spacingRight=4;overflow=hidden;points=[[0,0.5],[1,0.5]];portConstraint=eastwest;rotatable=0;whiteSpace=wrap;html=1;" parent="eOhm5z-nb3PQKtQOv-n3-7" vertex="1">
          <mxGeometry y="70" width="180" height="40" as="geometry" />
        </mxCell>
        <mxCell id="eOhm5z-nb3PQKtQOv-n3-11" value="Customers Information" style="text;html=1;align=center;verticalAlign=middle;whiteSpace=wrap;rounded=1;fillColor=none;dashed=1;" parent="1" vertex="1">
          <mxGeometry x="410" y="330" width="140" height="30" as="geometry" />
        </mxCell>
        <mxCell id="eOhm5z-nb3PQKtQOv-n3-14" value="crm_prd_info" style="swimlane;fontStyle=0;childLayout=stackLayout;horizontal=1;startSize=30;horizontalStack=0;resizeParent=1;resizeParentMax=0;resizeLast=0;collapsible=1;marginBottom=0;whiteSpace=wrap;html=1;rounded=1;fillColor=#dae8fc;strokeColor=#6c8ebf;fontSize=26;" parent="1" vertex="1">
          <mxGeometry x="390" y="230" width="180" height="70" as="geometry" />
        </mxCell>
        <mxCell id="eOhm5z-nb3PQKtQOv-n3-15" value="prd_key" style="text;strokeColor=none;fillColor=none;align=left;verticalAlign=middle;spacingLeft=4;spacingRight=4;overflow=hidden;points=[[0,0.5],[1,0.5]];portConstraint=eastwest;rotatable=0;whiteSpace=wrap;html=1;" parent="eOhm5z-nb3PQKtQOv-n3-14" vertex="1">
          <mxGeometry y="30" width="180" height="40" as="geometry" />
        </mxCell>
        <mxCell id="eOhm5z-nb3PQKtQOv-n3-16" value="Transactional Records About Sales &amp;amp; Orders" style="text;html=1;align=center;verticalAlign=middle;whiteSpace=wrap;rounded=1;fillColor=none;dashed=1;" parent="1" vertex="1">
          <mxGeometry x="107.5" y="250" width="185" height="30" as="geometry" />
        </mxCell>
        <mxCell id="eOhm5z-nb3PQKtQOv-n3-18" value="crm_sales_details" style="swimlane;fontStyle=0;childLayout=stackLayout;horizontal=1;startSize=30;horizontalStack=0;resizeParent=1;resizeParentMax=0;resizeLast=0;collapsible=1;marginBottom=0;whiteSpace=wrap;html=1;rounded=1;fillColor=#dae8fc;strokeColor=#6c8ebf;fontSize=26;" parent="1" vertex="1">
          <mxGeometry x="100" y="280" width="210" height="110" as="geometry" />
        </mxCell>
        <mxCell id="eOhm5z-nb3PQKtQOv-n3-19" value="prd_key" style="text;strokeColor=none;fillColor=none;align=left;verticalAlign=middle;spacingLeft=4;spacingRight=4;overflow=hidden;points=[[0,0.5],[1,0.5]];portConstraint=eastwest;rotatable=0;whiteSpace=wrap;html=1;" parent="eOhm5z-nb3PQKtQOv-n3-18" vertex="1">
          <mxGeometry y="30" width="210" height="40" as="geometry" />
        </mxCell>
        <mxCell id="eOhm5z-nb3PQKtQOv-n3-21" value="cust_id" style="text;strokeColor=none;fillColor=none;align=left;verticalAlign=middle;spacingLeft=4;spacingRight=4;overflow=hidden;points=[[0,0.5],[1,0.5]];portConstraint=eastwest;rotatable=0;whiteSpace=wrap;html=1;" parent="eOhm5z-nb3PQKtQOv-n3-18" vertex="1">
          <mxGeometry y="70" width="210" height="40" as="geometry" />
        </mxCell>
        <mxCell id="eOhm5z-nb3PQKtQOv-n3-20" value="Current &amp;amp; History Product Information" style="text;html=1;align=center;verticalAlign=middle;whiteSpace=wrap;rounded=1;fillColor=none;dashed=1;" parent="1" vertex="1">
          <mxGeometry x="410" y="200" width="140" height="30" as="geometry" />
        </mxCell>
        <mxCell id="eOhm5z-nb3PQKtQOv-n3-25" style="edgeStyle=orthogonalEdgeStyle;rounded=0;orthogonalLoop=1;jettySize=auto;html=1;entryX=0;entryY=0.5;entryDx=0;entryDy=0;" parent="1" source="eOhm5z-nb3PQKtQOv-n3-21" target="eOhm5z-nb3PQKtQOv-n3-8" edge="1">
          <mxGeometry relative="1" as="geometry" />
        </mxCell>
        <mxCell id="eOhm5z-nb3PQKtQOv-n3-26" style="edgeStyle=orthogonalEdgeStyle;rounded=0;orthogonalLoop=1;jettySize=auto;html=1;entryX=0;entryY=0.5;entryDx=0;entryDy=0;" parent="1" source="eOhm5z-nb3PQKtQOv-n3-19" target="eOhm5z-nb3PQKtQOv-n3-15" edge="1">
          <mxGeometry relative="1" as="geometry" />
        </mxCell>
        <mxCell id="eOhm5z-nb3PQKtQOv-n3-27" value="erp_cust_az12" style="swimlane;fontStyle=0;childLayout=stackLayout;horizontal=1;startSize=30;horizontalStack=0;resizeParent=1;resizeParentMax=0;resizeLast=0;collapsible=1;marginBottom=0;whiteSpace=wrap;html=1;rounded=1;fillColor=#ffe6cc;strokeColor=#d79b00;fontSize=26;" parent="1" vertex="1">
          <mxGeometry x="820" y="390" width="200" height="70" as="geometry" />
        </mxCell>
        <mxCell id="eOhm5z-nb3PQKtQOv-n3-28" value="cid" style="text;strokeColor=none;fillColor=none;align=left;verticalAlign=middle;spacingLeft=4;spacingRight=4;overflow=hidden;points=[[0,0.5],[1,0.5]];portConstraint=eastwest;rotatable=0;whiteSpace=wrap;html=1;" parent="eOhm5z-nb3PQKtQOv-n3-27" vertex="1">
          <mxGeometry y="30" width="200" height="40" as="geometry" />
        </mxCell>
        <mxCell id="eOhm5z-nb3PQKtQOv-n3-29" value="Extra Customer Information (BirthDay)" style="text;html=1;align=center;verticalAlign=middle;whiteSpace=wrap;rounded=1;fillColor=none;dashed=1;" parent="1" vertex="1">
          <mxGeometry x="850" y="360" width="140" height="30" as="geometry" />
        </mxCell>
        <mxCell id="eOhm5z-nb3PQKtQOv-n3-31" style="edgeStyle=orthogonalEdgeStyle;rounded=0;orthogonalLoop=1;jettySize=auto;html=1;entryX=1;entryY=0.5;entryDx=0;entryDy=0;" parent="1" source="eOhm5z-nb3PQKtQOv-n3-28" target="eOhm5z-nb3PQKtQOv-n3-30" edge="1">
          <mxGeometry relative="1" as="geometry" />
        </mxCell>
        <mxCell id="eOhm5z-nb3PQKtQOv-n3-32" value="erp_loc_a101" style="swimlane;fontStyle=0;childLayout=stackLayout;horizontal=1;startSize=30;horizontalStack=0;resizeParent=1;resizeParentMax=0;resizeLast=0;collapsible=1;marginBottom=0;whiteSpace=wrap;html=1;rounded=1;fillColor=#ffe6cc;strokeColor=#d79b00;fontSize=26;" parent="1" vertex="1">
          <mxGeometry x="820" y="510" width="200" height="70" as="geometry" />
        </mxCell>
        <mxCell id="eOhm5z-nb3PQKtQOv-n3-33" value="cid" style="text;strokeColor=none;fillColor=none;align=left;verticalAlign=middle;spacingLeft=4;spacingRight=4;overflow=hidden;points=[[0,0.5],[1,0.5]];portConstraint=eastwest;rotatable=0;whiteSpace=wrap;html=1;" parent="eOhm5z-nb3PQKtQOv-n3-32" vertex="1">
          <mxGeometry y="30" width="200" height="40" as="geometry" />
        </mxCell>
        <mxCell id="eOhm5z-nb3PQKtQOv-n3-34" value="Location of Customers (Country)" style="text;html=1;align=center;verticalAlign=middle;whiteSpace=wrap;rounded=1;fillColor=none;dashed=1;" parent="1" vertex="1">
          <mxGeometry x="850" y="480" width="140" height="30" as="geometry" />
        </mxCell>
        <mxCell id="eOhm5z-nb3PQKtQOv-n3-35" style="edgeStyle=orthogonalEdgeStyle;rounded=0;orthogonalLoop=1;jettySize=auto;html=1;entryX=1.002;entryY=0.705;entryDx=0;entryDy=0;entryPerimeter=0;" parent="1" source="eOhm5z-nb3PQKtQOv-n3-33" target="eOhm5z-nb3PQKtQOv-n3-30" edge="1">
          <mxGeometry relative="1" as="geometry" />
        </mxCell>
        <mxCell id="eOhm5z-nb3PQKtQOv-n3-36" value="erp_px_cat_g1v2" style="swimlane;fontStyle=0;childLayout=stackLayout;horizontal=1;startSize=30;horizontalStack=0;resizeParent=1;resizeParentMax=0;resizeLast=0;collapsible=1;marginBottom=0;whiteSpace=wrap;html=1;rounded=1;fillColor=#ffe6cc;strokeColor=#d79b00;fontSize=26;" parent="1" vertex="1">
          <mxGeometry x="820" y="200" width="200" height="70" as="geometry" />
        </mxCell>
        <mxCell id="eOhm5z-nb3PQKtQOv-n3-37" value="id" style="text;strokeColor=none;fillColor=none;align=left;verticalAlign=middle;spacingLeft=4;spacingRight=4;overflow=hidden;points=[[0,0.5],[1,0.5]];portConstraint=eastwest;rotatable=0;whiteSpace=wrap;html=1;" parent="eOhm5z-nb3PQKtQOv-n3-36" vertex="1">
          <mxGeometry y="30" width="200" height="40" as="geometry" />
        </mxCell>
        <mxCell id="eOhm5z-nb3PQKtQOv-n3-38" value="Product Categories" style="text;html=1;align=center;verticalAlign=middle;whiteSpace=wrap;rounded=1;fillColor=none;dashed=1;" parent="1" vertex="1">
          <mxGeometry x="850" y="170" width="140" height="30" as="geometry" />
        </mxCell>
        <mxCell id="eOhm5z-nb3PQKtQOv-n3-39" style="edgeStyle=orthogonalEdgeStyle;rounded=0;orthogonalLoop=1;jettySize=auto;html=1;entryX=1;entryY=0.5;entryDx=0;entryDy=0;" parent="1" source="eOhm5z-nb3PQKtQOv-n3-37" target="eOhm5z-nb3PQKtQOv-n3-15" edge="1">
          <mxGeometry relative="1" as="geometry" />
        </mxCell>
        <mxCell id="eOhm5z-nb3PQKtQOv-n3-40" value="" style="rounded=1;whiteSpace=wrap;html=1;fillColor=none;dashed=1;" parent="1" vertex="1">
          <mxGeometry x="90" y="180" width="500" height="430" as="geometry" />
        </mxCell>
        <mxCell id="eOhm5z-nb3PQKtQOv-n3-41" value="&lt;font style=&quot;font-size: 40px;&quot;&gt;CRM&lt;/font&gt;" style="rounded=1;whiteSpace=wrap;html=1;fillColor=#dae8fc;strokeColor=#6c8ebf;dashed=1;dashPattern=8 8;" parent="1" vertex="1">
          <mxGeometry x="280" y="160" width="120" height="30" as="geometry" />
        </mxCell>
        <mxCell id="eOhm5z-nb3PQKtQOv-n3-45" value="" style="rounded=1;whiteSpace=wrap;html=1;fillColor=none;dashed=1;" parent="1" vertex="1">
          <mxGeometry x="680" y="160" width="390" height="490" as="geometry" />
        </mxCell>
        <mxCell id="aUFc3K-39GJfoYxUc4l0-1" value="&lt;font style=&quot;font-size: 20px;&quot;&gt;PRODUCT&lt;/font&gt;" style="text;html=1;strokeColor=#b85450;fillColor=#f8cecc;align=center;verticalAlign=middle;whiteSpace=wrap;overflow=hidden;" vertex="1" parent="1">
          <mxGeometry x="390" y="290" width="180" height="30" as="geometry" />
        </mxCell>
        <mxCell id="aUFc3K-39GJfoYxUc4l0-2" value="&lt;font style=&quot;font-size: 20px;&quot;&gt;PRODUCT&lt;/font&gt;" style="text;html=1;strokeColor=#b85450;fillColor=#f8cecc;align=center;verticalAlign=middle;whiteSpace=wrap;overflow=hidden;" vertex="1" parent="1">
          <mxGeometry x="820" y="260" width="200" height="30" as="geometry" />
        </mxCell>
        <mxCell id="aUFc3K-39GJfoYxUc4l0-3" value="&lt;font style=&quot;font-size: 20px;&quot;&gt;CUSTOMER&lt;/font&gt;" style="text;html=1;strokeColor=#82b366;fillColor=#d5e8d4;align=center;verticalAlign=middle;whiteSpace=wrap;overflow=hidden;" vertex="1" parent="1">
          <mxGeometry x="390" y="460" width="180" height="30" as="geometry" />
        </mxCell>
        <mxCell id="aUFc3K-39GJfoYxUc4l0-4" value="&lt;font style=&quot;font-size: 20px;&quot;&gt;CUSTOMER&lt;/font&gt;" style="text;html=1;strokeColor=#82b366;fillColor=#d5e8d4;align=center;verticalAlign=middle;whiteSpace=wrap;overflow=hidden;" vertex="1" parent="1">
          <mxGeometry x="820" y="450" width="200" height="30" as="geometry" />
        </mxCell>
        <mxCell id="aUFc3K-39GJfoYxUc4l0-5" value="&lt;font style=&quot;font-size: 20px;&quot;&gt;CUSTOMER&lt;/font&gt;" style="text;html=1;strokeColor=#82b366;fillColor=#d5e8d4;align=center;verticalAlign=middle;whiteSpace=wrap;overflow=hidden;" vertex="1" parent="1">
          <mxGeometry x="820" y="570" width="200" height="30" as="geometry" />
        </mxCell>
        <mxCell id="aUFc3K-39GJfoYxUc4l0-6" value="&lt;font style=&quot;font-size: 20px;&quot;&gt;CUSTOMER&lt;/font&gt;" style="text;html=1;strokeColor=#9673a6;fillColor=#e1d5e7;align=center;verticalAlign=middle;whiteSpace=wrap;overflow=hidden;" vertex="1" parent="1">
          <mxGeometry x="100" y="380" width="210" height="30" as="geometry" />
        </mxCell>
        <mxCell id="aUFc3K-39GJfoYxUc4l0-7" value="&lt;font style=&quot;font-size: 40px;&quot;&gt;ERP&lt;/font&gt;" style="rounded=1;whiteSpace=wrap;html=1;fillColor=#dae8fc;strokeColor=#6c8ebf;dashed=1;dashPattern=8 8;" vertex="1" parent="1">
          <mxGeometry x="815" y="140" width="120" height="30" as="geometry" />
        </mxCell>
      </root>
    </mxGraphModel>
  </diagram>
</mxfile>
